<svg xmlns="http://www.w3.org/2000/svg" width="400" height="400" viewBox="0 0 400 400">
  <metadata><?xpacket begin="﻿" id="W5M0MpCehiHzreSzNTczkc9d"?>
<x:xmpmeta xmlns:x="adobe:ns:meta/" x:xmptk="Adobe XMP Core 5.6-c138 79.159824, 2016/09/14-01:09:01        ">
   <rdf:RDF xmlns:rdf="http://www.w3.org/1999/02/22-rdf-syntax-ns#">
      <rdf:Description rdf:about=""/>
   </rdf:RDF>
</x:xmpmeta>
                                                                                                    
                                                                                                    
                                                                                                    
                                                                                                    
                                                                                                    
                                                                                                    
                                                                                                    
                                                                                                    
                                                                                                    
                                                                                                    
                                                                                                    
                                                                                                    
                                                                                                    
                                                                                                    
                                                                                                    
                                                                                                    
                                                                                                    
                                                                                                    
                                                                                                    
                                                                                                    
                           
<?xpacket end="w"?></metadata>
<defs>
    <style>
      .cls-1 {
        fill: #ec9c23;
        fill-rule: evenodd;
      }
    </style>
  </defs>
  <path id="Forma_1" data-name="Forma 1" class="cls-1" d="M204.272,58c17.516-.337,22.468,7.38,22.125,25.034l-3.847-.481c-1.559-2.314-5-3.835-6.253-6.259-2.193-4.234-1.861-8.769-4.81-12.035C209.358,61.9,205.105,61.662,204.272,58Zm-14.429,2.889c3.772-.064,9.572-0.808,12.505.481,5.431,2.387,11.151,9.358,12.506,15.887H208.12a3.242,3.242,0,0,0-1.924-.481c-2.361-3.389-9.294-9.614-12.986-11.554-2.542-1.335-5.364-.306-6.253-3.37h0.962C188.333,61.539,189.431,61.207,189.843,60.889Zm33.668,0c9.878,1.738,11.949,4.941,14.911,13.48,1.766,5.091-.23,14.1-4.329,14.924-1.623-2.128-3.948-2.813-4.329-6.258-1.366-2.254.272-6.637-.481-9.628C228.094,68.681,224.031,65.728,223.511,60.889ZM167.718,71.48V70.036c2.244-1.5,5.164-3.74,7.7-4.814,11.455-4.862,24.023,5.681,26.935,11.554-10.268,3.232-13.407-2.009-21.163-4.814C177.716,70.706,171.99,71.536,167.718,71.48Zm70.7-1.444c3.533,0.8,4.631,2.7,6.734,4.814,7.484,7.519,4.062,14.233-.962,21.182-1.65,2.282-1.619,4.461-5.291,4.814a12.026,12.026,0,0,0-1.924-2.407C237.024,87.3,242.261,80.4,238.422,70.036Zm-70.7,2.407c10.179-.231,14.855,3,21.644,5.3a1.735,1.735,0,0,1-.962.481c-0.8,2.213-2.991,3.276-5.291,3.851-3.09.773-6.883-.5-8.658-0.963-6.114-1.594-14.348.65-19.239,0.963V81.59a1.733,1.733,0,0,0,.481-0.963c2.986-1.292,4.45-5.295,7.215-6.74C164.634,72.984,166.322,73.472,167.718,72.443Zm-6.253,9.628c5.6-.15,14.041-0.645,17.315,1.926a5.662,5.662,0,0,0-.962,2.407c-2.851.972-4.889,3.5-8.176,4.333H156.174l-8.657,2.888V92.662a3.25,3.25,0,0,0,.48-1.926c2.374-1.567,3.821-4.893,6.253-6.259C156.573,83.174,159.517,83.609,161.465,82.071Zm89.943,0,2.405,0.482c0.8,2.254,2.948,4.151,3.848,6.258,1.326,3.1.226,8.374,0,11.554-4.93,3.386-7.934,11.526-15.391,12.035v0.482h-0.481v-0.963c-1.847-2.107-.636-6.519.481-8.666,1.4-2.693,3.888-4.126,5.771-6.258C251.125,93.505,251.278,88.661,251.408,82.071Zm-96.2,10.591H168.68v0.963c-1.914,1.861-3.445,4.888-5.772,6.258-3.968,2.338-10.044,2.151-14.43,3.852-2.152.834-5.817,4.013-7.7,3.37-1.215-.706-0.743-0.212-0.962-1.926,2.528-3.433,3.858-8.122,7.7-10.11C150.085,93.739,153.038,94.216,155.212,92.662Zm105.816,7.7c0.077,2.865.767,8.679-.481,10.591-3.035,9.071-14.206,10.393-24.53,12.517V122.51a3.248,3.248,0,0,0,.481-1.926c2.374-1.607,3.832-4.815,6.253-6.258,3.762-2.242,8.08-2.852,11.062-5.777C256.016,106.389,257.7,101.134,261.028,100.365Zm-101.006,2.888a5.088,5.088,0,0,1-.481,2.889c-1.632,5.006-17.657,14.824-23.568,15.405q0.24-3.369.481-6.74c2-1.36,2.953-3.861,4.81-5.3A31.692,31.692,0,0,1,160.022,103.253Zm-2.886,13.48a5.091,5.091,0,0,1-.481,2.889c-2.172,6.536-10.717,7.878-15.391,12.035-2.625,2.335-4.007,6.477-8.177,7.221-0.111-3.256-1.118-6.282,0-9.628C135.623,121.661,146.872,116.584,157.136,116.733Zm102.93,0c0.065,4.731-2.252,9.909-5.772,11.073-3.8,2.877-16.528,3.911-20.682.481a2.46,2.46,0,0,1-.481-1.444,37.725,37.725,0,0,1,8.658-3.37l6.733-.481C252.676,121.483,255.44,117.259,260.066,116.733Zm-40.4,4.814c2.193,0.577,2.506,1.6,3.847,2.889a22.927,22.927,0,0,0-.481,7.7c1.473,1.1,1.93,3.257,3.367,4.332,2.38,1.78,7.125,1.706,7.7,5.3-10.406,5.488-15.531,1.75-22.125-4.814-0.029-3.214.277-6.015,0.481-8.666,2.058-1.37,3.031-3.7,4.81-5.3C218.009,122.316,218.978,122.267,219.664,121.547Zm-64.452,2.889h0.962c0.027,3.6-.077,6.783-1.443,9.147-0.965,1.671-3.5,2.468-4.81,3.851-5.226,5.531-11.308,10.741-14.91,17.813a1.647,1.647,0,0,1-.962-0.482c-2.179-2.846-.647-9.211.481-11.554C139.521,132.842,148.089,131.843,155.212,124.436Zm69.261,2.888c6.175,1.337,15.225,7.3,24.049,4.815,1.479-.417,2.867-1.5,4.81-1.926v0.963c-4.565,4.968-5.417,9.735-15.391,9.628-2.139-3.142-5.406-2.288-8.658-4.333-1.973-1.24-3.159-3.695-4.81-5.3v-3.852Zm-72.628,11.554h1.924v0.963c1.036,1.573.458,6.111,0,7.7-2.14,7.452-8.288,9.048-11.543,14.924-1.418,2.559-1.753,6.864-4.329,8.184v-0.481c-1.882-2.3-3.207-10.9-1.443-14.924C139.02,149.4,147.61,143.756,151.845,138.878Zm3.848,11.554h1.924V151.4c1.486,2.253.239,8.09,0,10.591-6.572,4.517-9.416,13.081-12.986,20.7a1.638,1.638,0,0,1-.962-0.481C132.746,170.938,150.944,156.125,155.693,150.432Zm4.81,9.629h1.924v0.963c2.905,4.421.441,10.769,0,15.405-4.725,3.26-6.223,9.854-13.949,10.11q-0.24-.723-0.481-1.444c-0.985-1.5-.637-5.972,0-7.7C150.46,170.7,156.7,165.762,160.5,160.061Zm60.123,33.7c-6.452-.069-13.574-3.436-15.873-7.7-1.268-2.354-1.229-4.422-2.886-6.258-2.124-2.354-6.92-3.15-8.176-6.258h11.543c1.412,0.981,3.09.543,4.81,1.444,1.315,0.689,2.312,2.8,3.367,3.851C217.529,182.935,220.727,185.161,220.626,193.76Zm-13.468-1.926c-14.317,0-13.686-6.669-21.644-11.072-2.59-1.433-7.307-1.189-8.177-4.333l5.291-.963c17.8-1.112,16.168,7.7,24.53,14.924v1.444Zm7.7-16.368c5.547-.07,9.377,1.029,13.467,1.444a27.737,27.737,0,0,0,3.848,4.333c0.121,4.2.776,7.266,0.481,11.554-1.253.82-2.174,2.744-3.367,3.37-2.533,1.329-5.909.987-8.657,1.926v-1.444c5.676-7.225-1.54-16.28-5.772-19.739v-1.444Zm-51.946,7.7v-1.444c12.866-7.461,22.065.7,29.821,8.184v0.963h-7.7c-1.41-1-3.077-.549-4.81-1.445-1.411-.729-2.824-3.065-4.329-3.851C172.386,183.743,167.877,183.211,162.908,183.169Zm71.185-.963c5.088,1.01,6.646,3.777,9.62,6.74q-0.242,2.888-.481,5.777c-4.695,3.809-9.369,10.6-16.835,8.666-4-1.035-7.357-.221-8.657-3.852,8.442,0.259,15.578-2.285,17.315-8.665C235.921,187.69,234.272,185.249,234.093,182.206Zm-86.576,9.628V190.39c5.939-4.011,17.025-8.28,26.934-3.851,1.746,0.78,2.859,3,4.329,3.851,1.977,1.143,6.468.537,7.7,2.407H186c-0.356.42-.606,0.543-0.962,0.963-1.716-.378-3.714-1.631-6.253-0.963-1.968.519-4.032,2.633-7.214,1.926A102.265,102.265,0,0,0,147.517,191.834Zm28.858,4.815v1.444c-3.184,1.758-6.855,4.338-10.581,5.3-4.174,1.072-10.662-.289-13.468-0.963-4.808-1.156-11.886.217-15.391,0.963v-1.445a1.732,1.732,0,0,0,.481-0.963c4.612-1.665,7.43-5.838,12.986-7.221C160.313,191.294,168.021,196.377,176.375,196.649Zm3.848-2.889c3.225,0.846,12.616,9.946,12.987,13.48,0.8,1.181.3,2.528,0,3.851-1.65,1.124-1.656,2.116-4.329,2.407-1.965,1.312-6.445.221-8.658,0-2.154-3.107-6.681-4.536-7.215-9.147-0.6-.754-0.308-0.245,0-0.962,0.979-2.81,3.052-2.51,4.81-4.333C178.943,197.889,179.312,195.022,180.223,193.76ZM186,195.2H188.4a29.2,29.2,0,0,0,3.367,3.37,6.248,6.248,0,0,0,0,2.407h-0.481V200.5C189.525,198.949,187.3,197.189,186,195.2ZM222.55,213.98v1.444c-3.76,2.117-8.013,2.453-14.43,2.407-4.162-6.234-12.5-8.736-14.429-17.331h7.695v0.481C209.164,203.591,210.879,213.8,222.55,213.98Zm16.834-13.48h1.924v0.963c0.9,1.366.19,3.008,0,4.814-3.9,2.654-14.661,9.736-22.606,6.258-4.5-1.969-8.184-6.812-11.544-10.109v-0.963h7.7C221.352,206.5,234.233,206.6,239.384,200.5Zm-76.476,4.814q-0.24,1.2-.481,2.407c-2.727.922-4.63,3.918-7.215,4.814l-4.81-.481c-1.926.409-5.779,1.447-7.695,1.926h-9.62c-2.578.647-4.833,2.08-7.7,2.407q-0.24-.723-0.481-1.444c3.673-2.514,5.841-7.235,10.1-9.147C142.591,202.392,154.113,205.271,162.908,205.314Zm32.707,3.852h1.443c1.905,2.8,5.776,4.1,6.252,8.184-1.486.99-1.407,1.665-3.848,1.925-1.364.9-3,.191-4.809,0-0.795-1.172-1.777-1.55-2.405-2.888a3.251,3.251,0,0,1-.481-1.926A7.149,7.149,0,0,0,195.615,209.166Zm-48.1,4.814h3.847v0.963h-0.481c-2.941,8.443-18.226,8.2-25.973,12.035-3.044,1.508-5.678,4.295-9.138,5.3v-0.963c1.212-1.669,1.244-4.041,2.405-5.777a27.158,27.158,0,0,1,10.1-8.184C133.022,215.234,143.617,216.694,147.517,213.98Zm99.082,0.963c2.685,0.7,3.175,2.226,4.809,3.851,0.236,6.168-4.555,20.363-8.176,21.182C240.842,230.967,246.442,225.567,246.6,214.943Zm0.962,26c-0.217-8.465,5.209-14.1,8.176-19.738,1.452-2.759.922-5.848,4.81-6.258,1.248,2,1.518,4.006,1.443,7.7-1.482,2.1-1.918,4.63-3.367,6.74s-4.1,3.42-5.772,5.3C250.926,236.846,250.987,240.221,247.561,240.939Zm-11.544-24.071a3.1,3.1,0,0,1,1.924.482c2.168,0.691,2.468,2,3.848,3.37,0.234,6.033-.472,19.15-4.329,20.219-0.989-1.488-1.664-1.408-1.924-3.851C234.82,235.95,235.945,221.005,236.017,216.868Zm-0.962,1.926c0.171,4.329.748,11.877-1.924,13.48-2.31-2.436-7.447-6.045-8.177-9.629C227.953,220.745,230.088,218.915,235.055,218.794Zm31.745,0h1.443c0.989,1.488,1.664,1.409,1.924,3.851,1.038,1.639-.078,5.964-0.962,7.7-1.344,2.643-11.362,14.531-13.949,15.4v-7.7a3.251,3.251,0,0,0,.481-1.926C260.916,232.582,264.252,224.966,266.8,218.794Zm-124.093,3.851c1.187,0.624.327-.206,0.962,0.963-1.866,2.556-2.146,6.008-4.329,8.184-3.682,3.67-10.483,4.309-15.392,6.74-3.819,1.892-7.309,4.874-11.062,6.74v-2.407c3.092-4.259,2.881-9.1,7.7-12.036C126.584,227.167,137.285,226.68,142.707,222.645Zm76.957,2.889c1.67-.063,3.863-0.161,4.809.481,3.1,1.059,11.536,14.342,10.582,16.85-0.623,1.188.206,0.328-.962,0.963v-0.482C231.506,242.427,220.505,228.539,219.664,225.534Zm39.44,28.885c-0.186-12,6.624-13.67,12.025-19.738,2.448-2.751,3.608-6.612,6.252-9.147,1.346,1.373,2.14,1.182,2.405,3.851,1.959,3.113-1.061,7.121-2.405,8.666-5.174,5.947-11.713,10.482-16.834,16.368H259.1Zm-26.935-8.666c-1.486.046-3.045,0.068-3.848-.481-2.774-.871-11.25-9.231-11.543-12.517h0.962a5.206,5.206,0,0,1,2.886-.481C224.256,235.973,230.99,239.941,232.169,245.753ZM110,259.233c-0.063-13.463,8.09-15.577,17.315-19.738,3.336-1.5,5.968-4,10.582-4.333v0.963c-2.071,2.859-1.78,7.285-4.81,9.147-7.194,4.421-16.262,7.729-21.644,13.961H110Zm150.066,4.814c0.111-11.278,9.2-14.024,14.91-19.738,2.355-2.355,3.541-6.757,7.7-7.221v0.963c1.311,1.966.22,6.451,0,8.665-3.166,2.1-5.068,6.04-8.177,8.184-4.488,3.1-9.543,5.051-12.986,9.147h-1.443Zm-46.174-24.071c5.149-.03,13.714,5.931,14.429,9.629h-0.962c-2.82-1.959-14.042-5.482-15.391-7.7A24.623,24.623,0,0,0,213.892,239.976ZM131.163,247.2c2.365,0.675,2.112,2.283,1.924,5.295-1.276,1.747-1.553,4.114-2.886,5.777-3.391,4.233-8.931,6.5-12.986,10.11-2.75,2.452-4.132,6.569-7.215,8.666V265.973c2.74-3.671,3.94-7.527,7.7-10.11C121.816,253.03,128.347,251.28,131.163,247.2Zm98.12,6.258c-5.763.2-8.008-.9-11.543-1.926-2.407-.7-4.562.9-5.772-0.962,1.092-1.049,1.206-1.816,2.886-2.408C218.079,245.887,228.77,251.384,229.283,253.456Zm31.745,20.22c0.2-11.456,10.668-12.331,16.834-17.813,2.515-2.235,3.7-5.982,7.7-6.74l0.481,0.963c1.484,1.84.74,4.651,0.481,7.221-2.055,1.377-3.039,3.68-4.81,5.3C279.526,264.6,264.08,273.346,261.028,273.676ZM213.892,260.2q0.24-1.445.481-2.889c1.311-.822,1.2-1.22,3.367-1.444,2.771-2,8.775-1.507,13.467-1.444v0.963a15.971,15.971,0,0,1-1.924,1.925C226.277,259.475,218.446,260.082,213.892,260.2Zm3.848,9.628a5.069,5.069,0,0,1,.481-2.888c1.615-4.936,8.519-7.545,13.948-8.666V260.2C229.453,262.808,221.715,269.108,217.74,269.824Zm-84.653-10.591c0.337,16.638-6.778,15.494-13.948,23.59-2.032,2.293-1.7,6.452-5.291,7.221v-0.482h-0.481c-2.5-20.5,9.539-20.407,18.277-30.329h1.443Zm154.876,3.851h0.962c0.071,1.864.258,4.678-.481,5.777-2.384,6.933-21.255,12.632-29.34,14.443v-0.963c2.423-3.213,3.25-7.056,6.734-9.147l4.329-.963C276.078,269.5,283.505,267.371,287.963,263.084Zm-54.832.482c1.768,0.487,1.692.316,1.924,2.407-3.164,3.149-6.652,10.064-12.025,10.591V275.6a5.216,5.216,0,0,1-.48-2.888c1.668-1.581,2.906-3.983,4.809-5.3C229.43,265.989,231.69,265.589,233.131,263.566Zm6.734,5.3a5.088,5.088,0,0,1-.481,2.889c-0.672,2.179-8.18,10.331-10.582,10.591v-0.963a5.222,5.222,0,0,1-.481-2.888c1.954-1.883,3.359-4.354,5.291-6.259,1.305-1.286,3.072-2.034,4.329-3.37h1.924Zm5.772,1.926q-0.242,2.408-.481,4.814c-2.993,2.1-7.636,10.223-10.582,10.592V285.23c-0.9-1.366-.19-3.008,0-4.814C238.283,277.857,240.6,271.683,245.637,270.787Zm-123.131,33.7h-1.443c-7.2-12.378.876-20.632,7.214-26.959,1.987-1.983,3.4-5.208,6.734-5.777v0.481h0.481C137.615,288.889,123.893,290.585,122.506,304.486Zm127.94-29.847h0.962q-0.24,2.888-.481,5.777c-3.6,2.511-5.785,10.075-8.176,11.554-0.753-.866-0.946-0.617-1.443-1.926C238.342,285.341,248.6,277.328,250.446,274.639Zm34.631,3.851h0.962q-0.24,2.888-.481,5.777c-1.582,1.076-2.723,3.5-4.329,4.333-5.756,3-12.943,1.589-20.2,3.37-1.579.387-4.418,1.574-5.772,0.962-1.187-.623-0.327.207-0.962-0.962h0.481c0.871-2.877,4.762-6.9,8.177-7.222,1.164-.684,3.087-0.044,4.81-0.481C273.414,282.834,280.9,281.688,285.077,278.49Zm-28.859.481c1.188,1.035,1.054,2.987.962,5.3-2.213,2.234-5.765,9.509-8.658,10.11q-0.24-.723-0.481-1.445c-0.9-1.366-.19-3.007,0-4.814C249.4,287.148,255.087,280.513,256.218,278.971Zm-125.055,37.07H129.72c-1.148-1.693-3.04-3.865-3.848-5.777-4.077-9.655,3.957-16.278,6.734-20.7,1.65-2.627,2.729-6.534,6.253-7.221,0.468,1.864,1.5,3.161,1.924,4.814C143.708,298.7,131.362,303.043,131.163,316.041ZM141.745,327.6H140.3c-2.641-3.864-9.17-11.462-5.772-19.257,1.074-2.464,3.536-5.068,4.81-7.221,1.756-2.969,1.884-7.884,5.772-8.666,0.932,1.548,1.678,1.926,1.924,4.333,1.315,2.036.162,6.543-.481,8.665C144.266,312.993,141.985,317.368,141.745,327.6Zm138.522-34.663q-0.24,1.926-.481,3.852c-2.186,1.491-3.709,4.2-6.253,5.3-4,1.731-21.081.509-26.934,0.482,0.478-2.739,1.651-2.95,3.366-4.333l1.443-1.926c5.468-3.206,14.775.36,22.125-1.444C275.742,294.316,277.368,293.133,280.267,292.932ZM148.478,301.6c10.584,2.943,5.474,23.638,7.7,34.662h-0.962c-3.2-3.22-8.4-6.026-10.1-10.591C141.855,316.927,148.272,309.773,148.478,301.6Zm121.208,2.888a3.114,3.114,0,0,1-.481,1.926c-3.58,11.232-22.112,5.046-33.188,4.814q0.24-1.2.481-2.407c2.722-1.161,4.747-3.542,8.177-4.333,2.9-.668,4.718.922,7.695,0.963C258.736,305.538,264.439,304.635,269.686,304.486ZM157.136,309.3c10.283,2.893,7.526,14.222,11.063,24.071,0.785,2.187,4.031,5.794,3.367,7.7a3.245,3.245,0,0,1-1.924.482c-3.545-4.008-11.272-5.338-12.025-12.036C156.07,327.08,157.082,313.39,157.136,309.3Zm74.071,2.888c7.845,1.587,14.927,3.753,25.011,3.852a1.653,1.653,0,0,0,.481.962,1.647,1.647,0,0,1-.481.963c-1.2,2-2.815,4.051-5.772,4.333-4.763,3.278-18.065-2.4-21.163-3.37-2.99-.94-5.285.17-5.772-3.37C225.594,314.464,229.217,313.675,231.207,312.189ZM187.919,343c-14.98-.953-21.225-13.07-21.163-28.885h0.962c3.875,2.79,8.521,3.424,11.062,7.7,2.138,3.6,1.846,9.112,3.848,13C184.1,337.662,187.287,339.535,187.919,343Zm-9.62-26c7.4,0.461,14.59,4.844,17.8,9.629,1.33,1.985,1.358,4.529,2.885,6.258,2.213,2.506,6.945,3.894,8.177,7.221H198.5c-2.178-1.547-5.129-1.073-7.695-2.407-3.5-1.82-11.494-15.459-12.987-19.738A1.732,1.732,0,0,0,178.3,317Zm36.555,2.889c11.071-.148,16.152,4.634,27.9,4.814v0.963c-1.819,1.842-2.368,3.98-5.772,4.333-5.949,3.986-22.209-3.8-26.935-6.259a8.511,8.511,0,0,1,.962-1.925C212.028,320.879,213.7,320.74,214.854,319.892Zm-20.2,1.926c2.862-.078,8.671-0.768,10.581.481,4.066,1.276,8.893,7.4,12.987,9.628,2.1,1.146,6,1.385,7.214,3.37-1.372,1.347-1.181,2.142-3.847,2.407-1.633,1.074-7.816.8-9.62,0C208.357,336.106,195.859,325.35,194.653,321.818Z"/>
  <path id="Forma_2" data-name="Forma 2" class="cls-1" d="M8,200C8,305.87,94.13,392,200,392s192-86.13,192-192S305.87,8,200,8,8,94.13,8,200Zm15.36,0C23.36,102.6,102.6,23.36,200,23.36S376.64,102.6,376.64,200,297.4,376.64,200,376.64,23.36,297.4,23.36,200Z"/>
</svg>
